<?xml version="1.0" standalone="no"?>
<!DOCTYPE svg PUBLIC "-//W3C//DTD SVG 20010904//EN"
 "http://www.w3.org/TR/2001/REC-SVG-20010904/DTD/svg10.dtd">
<svg version="1.0" xmlns="http://www.w3.org/2000/svg"
 width="1988.000000pt" height="1996.000000pt" viewBox="0 0 1988.000000 1996.000000"
 preserveAspectRatio="xMidYMid meet">

<g transform="translate(0.000000,1996.000000) scale(0.100000,-0.100000)"
fill="#000000" stroke="none">
<path d="M9510 17709 c-464 -23 -954 -95 -1410 -209 -107 -27 -265 -61 -350
-75 -1034 -178 -2159 -560 -3030 -1029 -968 -522 -1757 -1153 -2384 -1906
-611 -732 -1042 -1604 -1220 -2465 -288 -1390 -8 -2774 812 -4014 262 -397
522 -711 894 -1077 217 -214 354 -336 573 -511 1106 -883 2475 -1506 4035
-1837 118 -25 283 -66 365 -91 510 -153 1040 -247 1620 -286 224 -15 853 -6
1085 15 676 63 1314 206 1885 423 94 35 226 80 295 99 1641 460 2999 1224
4021 2261 534 542 897 1047 1199 1667 303 621 468 1208 526 1876 20 225 14
723 -11 950 -143 1308 -744 2490 -1786 3516 -1063 1045 -2491 1817 -4143 2238
-121 31 -288 79 -372 106 -653 211 -1277 320 -2004 350 -273 11 -347 11 -600
-1z m605 -79 c375 -15 803 -62 1054 -115 l66 -14 -60 5 c-33 3 -141 14 -240
24 -634 68 -1214 81 -1930 45 -77 -3 -82 -3 -35 5 102 16 374 41 540 49 242
12 328 12 605 1z m-1242 -67 c-7 -2 -19 -2 -25 0 -7 3 -2 5 12 5 14 0 19 -2
13 -5z m2410 -70 c-7 -2 -21 -2 -30 0 -10 3 -4 5 12 5 17 0 24 -2 18 -5z
m-1248 -23 c619 -21 1120 -72 1702 -175 347 -62 774 -163 886 -211 32 -13 70
-24 85 -24 15 0 40 -7 56 -15 15 -8 39 -15 52 -15 12 0 25 -4 28 -9 3 -5 29
-11 58 -14 29 -3 85 -15 123 -26 39 -11 82 -21 97 -21 28 0 119 -35 128 -49 3
-5 61 -29 130 -54 1478 -536 2685 -1336 3569 -2365 714 -830 1177 -1815 1320
-2808 41 -279 46 -363 46 -744 0 -408 -8 -510 -65 -845 -120 -705 -416 -1430
-848 -2080 -371 -558 -880 -1104 -1452 -1556 -737 -582 -1629 -1072 -2539
-1394 -53 -18 -154 -54 -225 -79 -71 -25 -146 -46 -167 -46 -22 0 -39 -4 -39
-10 0 -5 -9 -10 -20 -10 -12 0 -37 -8 -58 -19 -62 -31 -154 -54 -162 -41 -5 8
-32 1 -91 -24 -161 -68 -766 -203 -1219 -270 -658 -98 -1170 -132 -1890 -123
-441 5 -524 9 -885 42 -408 38 -976 126 -1116 174 -903 309 -1775 828 -2464
1465 -138 128 -381 376 -506 516 -576 649 -1031 1436 -1308 2267 -178 530
-283 1060 -322 1617 -15 225 -6 848 15 1051 97 897 335 1679 742 2437 331 617
706 1113 1230 1628 694 681 1494 1190 2419 1540 240 91 289 105 500 139 502
83 966 131 1460 150 297 12 400 12 730 1z m-2996 -324 c-3 -3 -56 -27 -119
-54 -146 -63 -365 -172 -550 -275 -1303 -724 -2322 -1817 -2929 -3139 -307
-670 -487 -1337 -568 -2113 -22 -216 -26 -962 -5 -1175 71 -726 234 -1375 502
-2000 511 -1192 1346 -2202 2440 -2952 338 -231 775 -475 1117 -623 62 -27
112 -49 110 -51 -10 -9 -450 118 -757 218 -1322 434 -2549 1168 -3420 2048
-504 509 -870 1009 -1164 1590 -215 423 -353 806 -451 1245 -143 646 -159
1262 -49 1920 266 1597 1313 3065 2939 4122 801 520 1725 926 2728 1198 163
44 184 49 176 41z m4741 -12610 c0 -2 -84 -25 -187 -50 -648 -156 -1164 -213
-1856 -203 -464 6 -750 33 -1192 113 -139 25 -195 42 -100 30 84 -10 351 -35
530 -48 264 -20 1248 -17 1535 5 416 32 937 95 1165 141 76 15 105 18 105 12z"/>
<path d="M13495 16730 c3 -5 11 -10 16 -10 6 0 7 5 4 10 -3 6 -11 10 -16 10
-6 0 -7 -4 -4 -10z"/>
<path d="M8995 16394 c-281 -28 -530 -64 -660 -94 -22 -5 -74 -16 -115 -26
-150 -33 -400 -104 -475 -134 -11 -5 -56 -20 -100 -35 -342 -115 -806 -353
-1158 -594 -140 -95 -371 -277 -462 -362 -27 -25 -83 -75 -122 -110 -74 -65
-311 -311 -417 -431 -117 -135 -343 -437 -426 -571 -151 -243 -350 -599 -350
-625 0 -5 -24 -61 -53 -123 -30 -63 -60 -130 -67 -149 -7 -19 -19 -48 -26 -65
-56 -129 -171 -483 -214 -656 -136 -549 -188 -1004 -176 -1528 8 -354 29 -607
71 -831 9 -47 20 -107 25 -135 8 -45 30 -141 76 -335 19 -78 77 -272 106 -355
210 -600 409 -984 769 -1485 205 -284 629 -716 944 -960 327 -254 832 -548
1150 -672 28 -10 64 -25 80 -32 202 -91 710 -236 1000 -286 589 -101 1186
-105 1705 -14 248 44 599 132 746 187 21 9 73 27 114 42 138 51 372 157 535
244 256 137 547 344 728 520 43 42 83 78 88 80 6 2 66 66 134 143 161 181 380
490 430 608 11 25 29 61 40 80 23 37 118 230 166 337 25 57 40 102 86 258 9
30 17 115 20 210 6 186 -3 236 -69 372 -35 74 -50 92 -120 153 -97 82 -156
112 -266 136 -73 16 -92 16 -160 5 -42 -7 -111 -27 -152 -44 -62 -25 -88 -44
-150 -106 -45 -45 -90 -102 -110 -141 l-35 -65 0 -145 0 -145 37 -75 c65 -133
172 -219 321 -260 60 -16 69 -9 75 65 4 49 2 55 -14 55 -27 0 -114 42 -150 73
-96 81 -149 248 -113 358 38 116 104 198 196 245 49 25 72 30 150 32 86 4 98
2 158 -26 195 -92 288 -308 244 -571 -29 -175 -161 -466 -305 -671 -187 -267
-447 -459 -708 -525 -121 -31 -314 -35 -429 -9 -131 29 -315 129 -431 234 -44
40 -165 180 -246 285 -30 40 -85 110 -122 156 -123 155 -481 619 -670 869 -65
85 -140 184 -168 220 -28 36 -82 106 -120 155 -37 50 -124 162 -192 251 -68
88 -136 178 -153 200 -16 21 -71 91 -121 154 -49 63 -103 133 -120 155 -16 22
-63 83 -104 135 -68 85 -191 246 -437 570 -46 60 -83 116 -83 124 0 16 55 90
320 431 266 342 412 530 495 640 46 61 105 138 132 171 26 34 98 126 158 204
61 78 139 179 174 224 35 44 155 203 268 351 112 149 238 313 279 365 41 52
114 147 161 210 48 63 114 149 148 190 33 41 72 91 85 110 44 65 253 334 353
455 274 332 494 464 806 485 73 5 135 10 136 12 2 2 0 30 -3 63 l-7 60 -130
-1 c-138 -1 -226 -16 -338 -58 -216 -81 -374 -214 -646 -541 -9 -11 -46 -58
-81 -104 -94 -121 -131 -169 -339 -436 -103 -132 -223 -287 -267 -344 -43 -57
-99 -130 -124 -161 -25 -32 -145 -190 -268 -351 -195 -258 -290 -381 -526
-684 -60 -77 -192 -249 -258 -335 -91 -121 -350 -453 -463 -596 -66 -83 -156
-198 -200 -255 -44 -57 -96 -121 -116 -144 -19 -22 -64 -78 -99 -125 -35 -47
-78 -102 -97 -123 -31 -34 -33 -42 -33 -106 0 -68 0 -69 54 -137 30 -38 89
-114 131 -169 115 -152 177 -231 254 -330 155 -198 219 -281 281 -365 108
-147 218 -292 268 -354 26 -33 161 -208 300 -390 139 -182 328 -430 421 -551
93 -121 209 -274 258 -340 242 -327 443 -546 594 -646 128 -86 208 -122 404
-182 147 -45 434 -60 619 -32 55 8 101 14 102 12 7 -7 -18 -29 -106 -93 -202
-148 -486 -304 -705 -386 -353 -133 -603 -193 -990 -239 -224 -27 -729 -12
-950 27 -44 8 -107 19 -140 25 -121 21 -201 40 -360 86 -83 24 -309 106 -380
138 -27 12 -75 33 -105 46 -30 12 -80 36 -110 52 -30 16 -98 52 -150 80 -132
70 -370 235 -525 363 -506 422 -926 1004 -1191 1649 -14 33 -29 69 -33 80 -35
80 -157 446 -186 555 -9 36 -23 85 -30 110 -79 277 -139 628 -186 1075 -25
242 -36 866 -20 1170 33 622 129 1191 281 1670 210 658 463 1134 838 1579 159
189 342 368 556 547 53 44 278 203 341 241 85 51 378 201 455 233 176 72 402
148 540 181 174 41 182 42 270 58 344 63 911 74 1185 25 274 -50 396 -79 575
-139 499 -166 913 -435 1252 -812 43 -48 78 -95 78 -103 0 -13 -114 -15 -985
-15 -963 0 -985 0 -995 -19 -5 -11 -10 -74 -10 -140 0 -117 1 -121 23 -125 12
-3 96 -7 187 -9 184 -3 226 -15 270 -77 27 -37 46 -148 36 -210 -7 -49 -51
-113 -321 -475 -78 -104 -193 -260 -255 -345 -62 -85 -124 -168 -138 -185 -42
-53 -265 -352 -315 -422 -26 -37 -65 -88 -86 -112 l-38 -44 -826 -5 -827 -5 0
1302 c0 877 -3 1301 -10 1301 -14 0 -74 -38 -192 -122 l-98 -69 -2 -1202 -3
-1202 -298 -3 -297 -2 2 -258 3 -257 298 -3 297 -2 0 -2673 0 -2672 136 -97
c74 -54 141 -98 149 -98 13 0 15 359 13 2842 l-3 2843 -370 0 -370 0 0 115 0
115 1134 3 c624 1 1139 -2 1143 -6 9 -9 -87 -148 -140 -204 l-26 -28 -478 0
c-264 0 -483 -2 -489 -5 -10 -7 -13 -1307 -2 -1455 l6 -93 29 34 c16 19 80
102 143 184 62 83 160 211 217 285 110 144 317 421 433 578 39 52 105 140 147
196 43 55 130 173 195 261 117 160 441 593 598 800 46 61 132 176 192 256 59
80 140 188 179 240 62 82 420 567 559 758 145 198 205 258 314 313 l66 33 465
5 c256 3 470 4 475 2 24 -7 166 -258 269 -475 67 -141 148 -371 200 -567 13
-52 28 -103 31 -112 6 -16 23 -18 156 -18 86 0 149 4 149 9 0 22 -45 191 -85
321 -10 30 -28 93 -40 140 -13 47 -35 123 -50 170 -15 47 -35 117 -46 155 -11
39 -25 88 -33 110 -7 22 -21 67 -30 100 -9 33 -30 107 -47 165 -33 111 -69
236 -95 335 -9 33 -27 94 -39 135 -61 197 -150 513 -176 618 l-10 42 -137 0
-138 0 -12 -60 c-22 -103 -100 -169 -225 -190 -86 -15 -121 -5 -283 86 -102
58 -295 154 -414 206 -30 14 -97 40 -290 113 -168 64 -530 152 -765 185 -254
36 -325 41 -665 44 -195 2 -373 2 -395 0z m5 -4055 c0 -12 -150 -220 -349
-484 -75 -99 -148 -198 -163 -220 -60 -89 -175 -230 -184 -225 -9 5 -16 833
-7 903 l5 37 349 0 c246 0 349 -3 349 -11z"/>
<path d="M6224 15613 c-122 -83 -179 -127 -269 -203 -102 -87 -383 -339 -435
-390 -64 -64 -288 -314 -326 -365 -20 -27 -58 -75 -84 -105 -66 -79 -242 -326
-320 -449 -59 -94 -107 -178 -210 -361 -31 -55 -180 -359 -180 -366 0 -2 -9
-23 -19 -47 -147 -322 -297 -811 -375 -1227 -43 -225 -81 -520 -91 -705 -3
-60 -8 -140 -11 -177 l-6 -68 40 0 40 0 6 118 c10 164 34 435 46 512 6 36 17
108 25 160 13 89 43 242 79 405 8 39 29 117 46 175 17 58 42 143 55 190 69
239 190 540 345 855 163 330 342 618 578 925 113 147 378 444 475 534 18 16
82 76 144 133 150 140 416 357 533 434 23 15 24 18 11 43 -8 14 -18 26 -22 26
-3 0 -37 -21 -75 -47z"/>
<path d="M11474 11151 c-73 -12 -211 -79 -261 -128 -16 -15 -17 -27 -1 -17 7
4 8 3 4 -5 -4 -6 -15 -10 -24 -9 -14 2 -17 -5 -16 -39 0 -24 -3 -43 -8 -43 -4
0 -8 -15 -8 -32 0 -25 -3 -29 -10 -18 -8 12 -10 10 -10 -10 1 -14 -1 -59 -3
-102 -3 -61 -1 -75 9 -71 8 3 14 0 14 -6 0 -6 -4 -11 -10 -11 -5 0 -10 -5 -10
-11 0 -5 5 -7 10 -4 16 10 11 -7 -6 -19 -11 -9 -13 -17 -6 -36 l10 -25 8 30
c6 26 8 27 14 10 4 -11 4 -24 -1 -29 -5 -6 -9 -17 -9 -25 0 -11 4 -10 16 5 15
19 15 19 10 -1 -4 -14 2 -25 23 -39 28 -19 32 -39 15 -68 -4 -7 -3 -8 4 -4 7
4 12 2 12 -4 0 -6 5 -8 10 -5 6 4 8 10 5 15 -3 5 -1 11 4 14 5 3 7 -7 6 -23
-2 -24 1 -29 16 -26 11 2 24 7 29 10 15 9 12 -1 -4 -18 -13 -12 -10 -16 20
-31 20 -9 32 -11 29 -5 -4 6 -17 14 -29 19 -18 8 -17 9 12 9 20 1 31 -3 27 -9
-3 -5 0 -10 9 -10 8 0 16 -4 18 -9 2 -6 17 -12 33 -15 17 -2 32 -5 34 -5 2 -1
-2 -7 -8 -14 -9 -11 -3 -14 34 -13 44 1 48 10 10 19 -11 3 0 3 25 2 26 -2 44
-8 43 -14 -2 -6 4 -11 12 -11 8 0 15 7 15 16 0 10 6 13 19 9 44 -14 205 85
277 171 58 70 58 69 18 99 -32 24 -38 26 -65 15 -16 -7 -39 -26 -50 -41 -26
-36 -93 -82 -141 -96 -78 -23 -177 22 -223 102 -32 53 -55 134 -55 190 0 125
94 252 166 225 16 -6 24 -5 28 6 3 8 10 14 16 14 6 0 8 -5 4 -12 -5 -8 -2 -9
10 -5 11 5 15 3 10 -5 -5 -7 1 -9 18 -5 17 5 30 2 38 -8 7 -8 19 -15 26 -15 8
0 14 -7 14 -16 0 -8 4 -13 9 -10 5 3 12 -2 15 -11 4 -9 1 -20 -6 -25 -7 -4 -8
-8 -2 -8 5 0 16 6 23 13 11 10 11 8 2 -11 -18 -33 -5 -63 23 -56 16 4 23 1 23
-9 0 -9 -6 -13 -16 -10 -12 5 -13 3 -4 -7 11 -12 86 -23 78 -11 -2 4 12 17 32
31 25 17 33 29 30 44 -17 78 -62 233 -70 244 -13 17 -57 15 -78 -4 -16 -14
-22 -14 -71 0 -70 20 -151 26 -214 17z m6 -70 c0 -5 -8 -12 -19 -16 -10 -3
-35 -21 -54 -40 -106 -103 -121 -311 -34 -455 39 -65 89 -107 159 -132 l53
-19 -63 5 c-70 6 -149 40 -195 84 -16 15 -45 56 -65 92 -35 62 -37 69 -37 160
0 84 3 102 27 151 34 69 86 121 152 154 53 26 76 31 76 16z m336 -67 c9 -30
14 -57 12 -59 -2 -2 -23 19 -47 46 -35 40 -41 53 -30 60 33 21 48 10 65 -47z
m-629 -46 c-3 -8 -6 -5 -6 6 -1 11 2 17 5 13 3 -3 4 -12 1 -19z m593 -89 c0
-10 -27 -19 -34 -12 -11 12 -6 19 14 19 11 0 20 -3 20 -7z"/>
<path d="M12430 11150 c-25 -4 -59 -12 -75 -18 -49 -15 -155 -73 -155 -84 0
-5 -5 -6 -12 -2 -6 4 -8 3 -4 -4 3 -6 -4 -22 -18 -35 -13 -13 -27 -34 -31 -46
-4 -14 -12 -20 -21 -17 -7 3 -16 1 -19 -4 -4 -6 -1 -10 4 -10 15 0 14 -53 -1
-68 -6 -6 -11 -35 -10 -64 0 -29 -4 -55 -10 -59 -12 -7 10 -69 24 -69 5 0 7
-12 7 -27 -2 -24 -2 -25 -6 -5 -2 12 -9 22 -14 22 -11 0 -2 -39 12 -54 5 -6 9
-18 9 -28 0 -10 7 -18 15 -18 10 0 14 -7 12 -22 -2 -13 -2 -17 0 -10 4 10 11
8 29 -9 13 -12 24 -27 24 -33 -1 -6 -10 0 -20 13 -11 13 -20 19 -20 13 0 -5 6
-15 14 -22 8 -6 14 -17 12 -23 -1 -7 -1 -9 1 -6 2 4 17 0 33 -8 21 -10 30 -22
30 -39 0 -21 4 -24 20 -19 15 5 18 3 14 -8 -3 -8 2 -17 13 -21 10 -4 19 -2 21
3 5 14 32 14 32 1 0 -5 13 -10 28 -10 16 0 37 -7 48 -15 10 -8 28 -14 39 -15
17 0 18 2 5 11 -12 8 -10 9 10 5 14 -3 34 -6 45 -7 14 -1 10 -4 -10 -9 l-30
-8 33 -1 c23 -1 32 3 32 15 0 11 6 14 20 9 45 -14 209 90 282 180 l48 60 -32
27 c-40 33 -48 34 -80 8 -14 -10 -28 -16 -32 -13 -3 3 -6 1 -6 -5 0 -7 -12
-25 -27 -40 -61 -61 -142 -90 -201 -71 -91 29 -146 89 -176 191 -38 133 3 276
95 323 15 8 34 12 43 9 8 -3 23 -1 33 4 10 5 29 6 43 1 14 -4 19 -7 12 -8 -7
-1 -10 -5 -7 -11 3 -5 2 -10 -4 -10 -5 0 -13 5 -16 10 -3 6 -11 10 -18 10 -6
0 -1 -7 11 -16 21 -15 25 -15 42 1 15 13 22 14 37 5 14 -9 15 -10 1 -6 -9 2
-19 -2 -22 -10 -3 -8 -2 -13 3 -9 5 3 12 -1 14 -7 4 -10 8 -9 16 2 10 13 12
13 21 0 5 -8 10 -11 10 -6 0 13 49 -45 56 -67 3 -9 10 -15 15 -12 5 4 9 -4 9
-16 0 -18 -2 -19 -15 -9 -24 20 -29 4 -6 -19 13 -13 21 -16 25 -8 2 7 5 6 5
-4 1 -13 28 -18 51 -9 3 1 9 2 13 1 5 -1 6 2 3 7 -3 5 9 16 25 26 23 14 30 23
26 40 -21 84 -64 233 -70 244 -12 17 -57 15 -79 -5 -17 -15 -22 -15 -71 0 -66
21 -149 28 -207 17z m0 -70 c0 -5 -6 -10 -13 -10 -22 0 -99 -81 -117 -124 -33
-74 -44 -159 -31 -228 31 -159 111 -254 245 -289 21 -6 9 -7 -39 -4 -122 8
-211 69 -272 187 -23 46 -27 65 -27 148 -1 84 2 101 26 151 35 70 89 125 153
155 54 26 75 30 75 14z m348 -121 c-2 -4 -24 15 -49 43 l-46 49 31 13 31 13
18 -55 c9 -31 16 -59 15 -63z m-651 -381 c-3 -7 -5 -2 -5 12 0 14 2 19 5 13 2
-7 2 -19 0 -25z m170 -200 c-3 -8 -6 -5 -6 6 -1 11 2 17 5 13 3 -3 4 -12 1
-19z"/>
<path d="M9552 11138 c-7 -7 -12 -20 -12 -30 0 -10 -7 -18 -17 -18 -12 0 -14
-3 -6 -8 7 -4 9 -13 4 -21 -5 -7 -14 -10 -20 -7 -15 10 -14 -7 2 -23 6 -8 7
-11 1 -8 -6 3 -19 -8 -29 -25 -10 -17 -13 -28 -6 -24 14 9 15 -23 1 -44 -8
-12 -10 -10 -11 10 -1 17 -4 12 -9 -15 -4 -22 -6 -45 -3 -51 2 -7 -1 -15 -6
-19 -6 -3 -8 -12 -4 -18 5 -8 2 -8 -9 0 -8 7 -18 10 -21 6 -10 -10 -8 -51 2
-55 5 -1 3 -12 -5 -22 -14 -19 -14 -19 -14 4 0 27 -9 22 -15 -8 -2 -11 -11
-34 -19 -50 -9 -18 -12 -33 -7 -37 5 -3 12 3 14 12 2 10 2 7 0 -7 -2 -14 -5
-33 -6 -42 -1 -10 -5 -18 -9 -18 -4 0 -8 -9 -8 -20 0 -11 -6 -23 -14 -26 -7
-3 -13 -16 -13 -30 0 -27 -19 -54 -37 -54 -18 0 -66 -24 -66 -33 0 -5 4 -6 8
-3 5 3 9 -8 10 -24 1 -55 17 -70 75 -72 240 -7 247 -5 247 70 l0 52 -34 0
c-22 0 -36 6 -40 16 -6 16 84 279 127 372 26 56 40 42 41 -40 0 -40 2 -54 6
-38 7 25 7 25 11 -5 2 -16 9 -29 14 -27 12 4 23 -31 24 -80 1 -21 6 -38 11
-38 6 0 10 -4 10 -10 0 -5 -7 -10 -15 -10 -8 0 -15 -5 -15 -11 0 -5 4 -8 9 -5
5 4 12 0 14 -6 4 -8 9 -3 13 12 8 24 8 24 15 -10 8 -39 3 -52 -11 -30 -14 22
-12 7 5 -31 10 -24 14 -28 15 -14 0 16 2 17 10 5 12 -19 -6 -40 -34 -40 -29 0
-63 -24 -48 -34 7 -4 12 -23 12 -41 0 -27 -3 -33 -16 -28 -12 4 -15 1 -13 -12
2 -10 10 -20 18 -23 8 -3 11 0 7 6 -4 7 4 7 23 -1 17 -6 28 -15 25 -19 -3 -4
2 -8 10 -8 10 0 13 6 10 15 -5 13 12 15 120 15 113 0 126 -2 127 -17 0 -15 2
-15 9 2 5 11 9 17 9 12 1 -4 12 0 26 9 20 13 25 24 25 60 0 38 -3 44 -24 50
-34 8 -51 30 -75 94 -12 30 -26 64 -31 75 -5 11 -48 117 -95 235 -48 118 -92
227 -98 243 -12 26 -14 27 -97 27 -54 0 -91 -5 -98 -12z m144 -56 c5 -4 34
-68 63 -142 29 -74 59 -148 67 -165 7 -16 36 -87 64 -158 29 -70 61 -138 71
-151 10 -13 15 -26 12 -30 -10 -9 -141 -7 -147 3 -3 5 1 22 9 39 15 28 14 36
-19 129 -68 197 -128 348 -144 366 -13 14 -26 18 -54 14 -44 -6 -44 -4 -19 56
18 41 23 45 54 45 19 0 38 -3 43 -6z m-279 -274 c-3 -8 -6 -5 -6 6 -1 11 2 17
5 13 3 -3 4 -12 1 -19z m-30 -90 c-3 -8 -6 -5 -6 6 -1 11 2 17 5 13 3 -3 4
-12 1 -19z m80 -40 c-3 -8 -6 -5 -6 6 -1 11 2 17 5 13 3 -3 4 -12 1 -19z m-30
-80 c-3 -8 -6 -5 -6 6 -1 11 2 17 5 13 3 -3 4 -12 1 -19z m-22 -62 c-5 -22 -1
-44 9 -64 14 -27 14 -31 0 -36 -20 -8 -59 -8 -66 0 -5 4 52 131 60 133 2 1 0
-14 -3 -33z"/>
<path d="M10485 11143 c-28 -7 -39 -31 -36 -76 3 -42 -13 -69 -35 -60 -12 4
-13 0 -4 -22 15 -39 12 -54 -6 -25 -14 24 -14 24 -8 -14 5 -26 3 -37 -4 -32
-11 7 -28 -31 -18 -41 3 -4 6 2 6 12 0 10 3 16 6 12 8 -8 -5 -47 -16 -47 -5 0
-11 8 -13 18 -3 11 -3 11 -2 -3 1 -11 6 -29 10 -40 6 -19 6 -19 -9 -1 -14 17
-15 16 -10 -20 3 -30 2 -34 -5 -19 -8 18 -10 18 -12 3 -1 -10 -2 -24 -3 -30
-1 -7 3 -16 9 -20 6 -5 2 -8 -9 -8 -12 0 -16 -5 -13 -15 4 -8 2 -17 -4 -20 -5
-4 -6 -12 -2 -18 4 -7 -1 -6 -10 2 -20 16 -22 15 -31 -20 -4 -20 -1 -29 11
-33 15 -6 15 -9 3 -16 -8 -5 -17 -7 -20 -5 -3 2 -6 -9 -5 -23 0 -17 -5 -26
-13 -24 -9 2 -12 -4 -8 -16 9 -27 -3 -52 -24 -52 -10 0 -26 -3 -35 -6 -13 -5
-14 -8 -3 -15 11 -7 11 -9 -1 -9 -11 0 -11 -3 -1 -15 11 -13 10 -18 -4 -28
-20 -14 -14 -58 10 -78 17 -14 19 2 3 18 -9 9 -7 10 10 6 11 -3 21 -9 21 -15
0 -5 8 -4 19 2 23 12 181 14 181 2 0 -5 7 -9 15 -9 8 0 15 4 15 9 0 5 11 13
25 18 18 7 25 17 25 37 0 42 -11 75 -24 70 -6 -2 -22 0 -35 4 -20 8 -23 14
-18 42 3 17 10 45 16 61 10 24 15 27 39 22 15 -4 32 -7 39 -8 7 -1 14 -7 17
-15 3 -7 11 -13 17 -13 8 0 9 4 0 13 -8 11 -5 14 19 14 17 0 30 -5 30 -10 0
-5 8 -3 17 4 11 10 14 10 9 2 -4 -7 -3 -13 1 -13 5 0 15 6 22 13 11 10 13 10
7 0 -4 -7 -2 -13 3 -13 6 0 11 5 11 11 0 5 5 7 12 3 8 -5 5 -12 -9 -23 -16
-14 -18 -19 -6 -29 10 -10 13 -10 13 3 0 8 4 15 8 15 11 0 9 -31 -3 -49 -6
-11 -4 -13 9 -8 10 4 15 3 11 -3 -3 -6 -16 -10 -28 -10 -25 -1 -80 -29 -57
-30 10 0 8 -5 -7 -15 -18 -12 -20 -20 -13 -51 12 -53 21 -54 14 -1 -5 34 -3
47 6 47 8 0 10 -8 6 -23 -3 -14 0 -32 8 -43 13 -17 27 -18 168 -16 84 1 166 5
181 8 27 6 28 8 25 57 -3 45 -6 52 -28 57 -29 7 -43 33 -106 195 -25 66 -52
134 -59 150 -7 17 -34 86 -60 155 -67 178 -59 170 -158 169 -45 -1 -91 -4
-102 -6z m137 -59 c17 -3 29 -14 33 -27 4 -12 22 -60 40 -107 18 -47 68 -173
110 -280 42 -107 83 -202 91 -211 8 -9 11 -19 7 -22 -8 -8 -137 -9 -145 -1 -3
3 1 19 9 36 14 27 14 36 -1 92 -21 76 -40 106 -67 106 -18 0 -20 4 -13 28 13
45 9 73 -26 167 -40 110 -62 138 -107 133 -37 -4 -40 4 -21 49 19 42 32 47 90
37z m-44 -207 c7 -18 12 -41 12 -50 0 -9 4 -17 9 -17 14 0 20 -64 7 -72 -16
-11 -116 -10 -116 2 0 29 57 170 69 170 4 0 12 -15 19 -33z m-138 -163 c14
-36 13 -44 -9 -44 -11 0 -27 -10 -35 -22 -20 -29 -20 -14 0 45 18 53 30 59 44
21z m-147 -49 c4 -8 2 -17 -3 -20 -6 -4 -10 3 -10 14 0 25 6 27 13 6z m74 -77
c-3 -8 -6 -5 -6 6 -1 11 2 17 5 13 3 -3 4 -12 1 -19z m-16 -52 c-9 -10 -8 -24
2 -55 8 -22 12 -43 9 -46 -7 -7 -67 -6 -74 1 -4 3 5 22 18 41 13 20 24 42 24
49 0 8 5 14 10 14 6 0 10 8 11 18 0 11 2 12 6 4 3 -7 0 -19 -6 -26z m-171
-140 c0 -3 -4 -8 -10 -11 -5 -3 -10 -1 -10 4 0 6 5 11 10 11 6 0 10 -2 10 -4z"/>
<path d="M13058 11144 c-4 -3 -4 -13 -1 -22 4 -10 2 -13 -5 -8 -7 4 -12 2 -12
-3 0 -6 5 -11 10 -11 6 0 10 -7 10 -15 0 -18 -16 -20 -23 -2 -3 6 -4 2 -4 -9
1 -13 6 -20 13 -17 8 3 11 -2 7 -16 -4 -17 -2 -20 11 -15 11 4 16 0 17 -12 0
-18 1 -17 9 1 5 11 9 14 9 7 1 -9 6 -10 20 -3 15 8 20 7 25 -5 10 -26 7 -481
-4 -508 -8 -22 -16 -26 -51 -26 -34 0 -40 -3 -35 -17 4 -9 1 -20 -6 -25 -10
-6 -10 -8 1 -8 11 0 11 -3 1 -15 -7 -8 -8 -15 -3 -15 5 0 9 -9 9 -21 0 -19 -1
-19 -13 -3 -7 10 -13 13 -13 7 0 -5 9 -18 20 -28 11 -10 20 -14 20 -9 0 13
245 17 270 4 15 -8 20 -8 21 2 0 7 4 4 9 -7 7 -17 9 -17 9 -2 1 9 6 17 12 17
5 0 7 -4 4 -10 -3 -5 -2 -10 3 -10 6 0 12 7 16 15 3 8 12 15 21 15 13 0 15 10
13 52 -3 52 -3 53 -37 55 -19 2 -38 9 -43 16 -20 31 -6 57 73 133 108 104 100
98 131 118 25 16 29 16 43 3 19 -20 22 -147 3 -147 -10 0 -10 -2 0 -8 18 -12
7 -83 -14 -99 -10 -7 -30 -13 -46 -13 -20 0 -28 -5 -29 -17 -1 -10 -2 -35 -4
-55 -4 -48 -2 -49 185 -51 82 -1 150 -6 150 -10 0 -5 7 -1 16 7 8 9 22 16 30
16 12 0 14 11 12 53 -3 50 -4 52 -33 55 -16 2 -36 8 -42 14 -17 13 -19 499 -3
529 8 13 21 19 46 19 l35 0 -3 53 -3 52 -190 0 -190 0 -8 -54 c-4 -30 -6 -56
-4 -58 2 -1 15 -4 28 -5 18 -1 24 -8 25 -25 2 -23 1 -23 -13 -6 -8 11 -7 5 3
-14 l18 -32 -67 -68 c-37 -37 -81 -88 -99 -112 -55 -74 -58 -70 -58 89 0 78 5
150 10 161 8 13 21 19 46 19 l35 0 -3 53 -3 52 -191 3 c-104 1 -193 0 -196 -4z
m254 -61 c15 -3 15 -7 2 -38 -10 -25 -14 -77 -14 -187 0 -164 9 -198 51 -198
27 0 24 -12 -11 -45 -38 -36 -47 -84 -27 -135 8 -21 12 -41 9 -44 -9 -10 -110
-7 -116 3 -3 5 1 22 9 37 21 41 22 502 1 562 -11 31 -12 42 -3 46 14 6 75 5
99 -1z m483 -5 c3 -3 -2 -21 -10 -41 -20 -49 -21 -502 -1 -559 7 -21 11 -40 8
-43 -7 -7 -107 -6 -114 1 -4 3 0 21 8 39 10 25 14 79 14 191 0 171 -7 194 -57
194 -12 0 -23 3 -23 6 0 3 18 26 40 51 44 50 50 84 25 133 -13 26 -13 29 3 33
20 6 100 2 107 -5z m-185 -63 c0 5 5 4 11 -2 6 -6 8 -17 4 -24 -6 -9 -11 -7
-22 6 -7 11 -13 24 -13 29 0 6 5 4 10 -4 5 -8 10 -11 10 -5z"/>
<path d="M14103 11133 c-4 -10 -11 -21 -17 -25 -7 -5 -7 -8 2 -8 6 0 12 -5 12
-11 0 -5 -4 -7 -10 -4 -5 3 -10 -1 -10 -9 0 -9 4 -16 9 -16 5 0 7 -10 4 -22
-4 -19 -3 -20 6 -8 9 13 11 12 11 -5 0 -15 3 -17 9 -7 9 15 20 15 38 1 7 -7
13 -5 17 3 4 9 5 9 5 -2 -1 -8 0 -26 1 -40 2 -24 3 -23 10 5 4 17 7 -84 8
-223 0 -280 -1 -282 -64 -282 -19 0 -34 -5 -34 -11 0 -5 -4 -7 -10 -4 -5 3
-10 1 -10 -4 0 -6 4 -11 8 -11 5 0 9 -7 9 -15 0 -8 -4 -15 -9 -15 -4 0 -8 5
-8 12 0 6 -3 9 -6 5 -9 -8 6 -48 16 -42 4 3 11 -5 15 -18 4 -12 8 -25 10 -29
1 -5 3 -11 4 -15 0 -3 9 2 20 11 16 14 39 17 155 15 122 -1 167 -9 119 -22
-14 -4 -12 -5 5 -6 12 0 22 5 22 12 0 7 14 18 30 24 27 10 30 15 30 56 0 48
-9 57 -56 57 -29 0 -44 31 -44 92 0 34 6 46 37 75 26 25 43 33 59 30 13 -2 26
1 29 7 2 6 2 0 -1 -13 -4 -17 -3 -21 6 -16 15 10 30 -12 30 -45 0 -20 -2 -22
-11 -10 -7 10 -9 11 -7 2 2 -8 6 -12 9 -10 3 2 13 -3 22 -11 10 -7 17 -9 17
-3 0 6 -5 12 -11 14 -7 2 -10 10 -7 18 2 8 11 -2 22 -23 9 -20 22 -37 28 -37
5 0 8 -6 5 -14 -3 -8 -1 -17 6 -20 8 -3 6 -5 -3 -5 -13 -1 -13 -2 0 -12 12 -9
11 -10 -7 -6 -25 6 -43 -11 -46 -42 -1 -12 -5 -21 -9 -21 -9 0 -11 -42 -2 -64
3 -9 10 -16 16 -16 5 0 6 5 2 12 -5 7 -3 8 5 4 7 -5 10 -14 7 -22 -7 -19 2
-18 21 2 14 13 41 15 172 13 188 -3 201 1 201 67 0 41 -2 45 -29 50 -16 4 -38
14 -49 24 -30 28 -252 325 -251 336 1 17 198 175 244 195 l46 20 -3 47 -3 47
-174 3 c-96 1 -178 -1 -182 -5 -4 -5 -11 -33 -14 -64 -5 -45 -3 -60 11 -73 12
-13 19 -14 30 -5 9 7 14 8 14 1 0 -6 -9 -14 -21 -17 -11 -4 -18 -9 -15 -12 6
-6 -19 -32 -65 -68 -14 -11 -37 -37 -51 -58 -14 -21 -36 -45 -47 -53 -19 -14
-22 -13 -27 0 -8 21 -1 223 8 232 4 4 25 10 45 13 l38 6 0 50 0 50 -193 3
c-176 2 -193 1 -199 -15z m265 -52 c10 -1 10 -6 -2 -23 -24 -34 -23 -294 1
-320 9 -10 22 -18 30 -18 21 0 16 -14 -17 -45 -28 -27 -30 -33 -30 -110 0 -55
5 -87 15 -101 8 -12 11 -24 8 -28 -8 -8 -96 -8 -117 0 -14 5 -14 8 -1 27 22
31 22 562 0 591 -10 13 -11 22 -5 26 9 5 62 6 118 1z m477 0 c5 0 -2 -8 -15
-17 -14 -10 -42 -33 -62 -53 -38 -35 -42 -35 -38 7 1 13 -4 29 -10 37 -6 8 -9
18 -6 23 4 7 87 9 131 3z m-200 -62 c3 -5 -1 -6 -10 -2 -10 3 -20 1 -24 -6 -6
-9 -11 -9 -19 2 -10 11 -6 14 18 15 16 0 32 -3 35 -9z m95 -394 c76 -101 136
-186 132 -189 -7 -8 -137 -8 -145 0 -3 3 -2 17 4 31 13 34 -6 73 -91 187 -47
65 -82 102 -103 111 l-32 13 45 42 45 42 3 -26 c2 -15 64 -107 142 -211z
m-163 -237 c-3 -7 -5 -2 -5 12 0 14 2 19 5 13 2 -7 2 -19 0 -25z"/>
<path d="M10421 11057 c-13 -21 -12 -21 5 -5 10 10 16 20 13 22 -3 3 -11 -5
-18 -17z"/>
<path d="M10425 11030 c-3 -5 -1 -10 4 -10 6 0 11 5 11 10 0 6 -2 10 -4 10 -3
0 -8 -4 -11 -10z"/>
<path d="M14135 11000 c-4 -6 -2 -10 3 -10 10 0 15 -15 32 -95 8 -39 9 -38 4
10 -8 90 -9 95 -21 99 -7 3 -15 1 -18 -4z"/>
<path d="M11610 10990 l-25 -8 27 -1 c15 -1 30 4 33 9 7 11 0 11 -35 0z"/>
<path d="M13100 10978 c0 -4 5 -8 11 -8 5 0 7 -5 3 -12 -4 -7 -3 -8 4 -4 17
10 15 33 -3 33 -8 0 -15 -4 -15 -9z"/>
<path d="M11648 10963 c7 -3 16 -2 19 1 4 3 -2 6 -13 5 -11 0 -14 -3 -6 -6z"/>
<path d="M11677 10955 c-4 -8 -2 -17 3 -20 6 -4 10 3 10 14 0 25 -6 27 -13 6z"/>
<path d="M3926 10929 c-18 -18 -19 -30 -12 -206 16 -451 82 -886 200 -1318 34
-125 179 -543 215 -625 22 -47 55 -123 76 -170 65 -151 191 -398 254 -500 16
-25 49 -81 76 -125 193 -326 532 -742 829 -1017 169 -157 221 -195 241 -178 8
7 15 20 14 29 0 9 -73 84 -162 166 -181 169 -355 358 -553 600 -22 28 -60 79
-84 115 -24 36 -68 98 -98 139 -121 165 -396 667 -473 866 -11 28 -28 68 -38
90 -57 123 -158 417 -221 640 -4 17 -16 57 -25 90 -31 110 -65 261 -86 383 -5
28 -14 78 -19 110 -28 151 -79 619 -87 799 -6 120 -15 143 -47 112z"/>
<path d="M12632 10938 c3 -7 11 -13 19 -13 8 0 13 -8 11 -17 -1 -9 6 -18 18
-21 11 -3 20 -1 20 4 0 5 -4 9 -10 9 -5 0 -10 5 -10 11 0 13 -21 33 -39 37 -7
1 -11 -3 -9 -10z"/>
<path d="M9431 10914 c0 -11 3 -14 6 -6 3 7 2 16 -1 19 -3 4 -6 -2 -5 -13z"/>
<path d="M13134 10760 c0 -91 2 -128 3 -82 2 45 2 119 0 165 -1 45 -3 8 -3
-83z"/>
<path d="M12091 10894 c0 -11 3 -14 6 -6 3 7 2 16 -1 19 -3 4 -6 -2 -5 -13z"/>
<path d="M9421 10874 c0 -11 3 -14 6 -6 3 7 2 16 -1 19 -3 4 -6 -2 -5 -13z"/>
<path d="M11122 10845 c0 -16 2 -22 5 -12 2 9 2 23 0 30 -3 6 -5 -1 -5 -18z"/>
<path d="M14164 10701 c4 -77 12 -152 17 -168 8 -24 8 -23 4 12 -3 22 -5 97
-5 168 0 88 -3 127 -11 127 -9 0 -10 -38 -5 -139z"/>
<path d="M12061 10804 c0 -11 3 -14 6 -6 3 7 2 16 -1 19 -3 4 -6 -2 -5 -13z"/>
<path d="M9645 10750 c3 -5 8 -10 11 -10 2 0 4 5 4 10 0 6 -5 10 -11 10 -5 0
-7 -4 -4 -10z"/>
<path d="M9671 10664 c0 -11 3 -14 6 -6 3 7 2 16 -1 19 -3 4 -6 -2 -5 -13z"/>
<path d="M13587 10653 c-10 -9 -9 -33 1 -33 4 0 8 9 8 20 0 23 0 22 -9 13z"/>
<path d="M14530 10630 c-9 -6 -10 -10 -3 -10 6 0 15 5 18 10 8 12 4 12 -15 0z"/>
<path d="M9310 10589 c0 -5 5 -7 10 -4 6 3 10 8 10 11 0 2 -4 4 -10 4 -5 0
-10 -5 -10 -11z"/>
<path d="M13582 10580 c-1 -8 5 -26 12 -40 l14 -25 -1 27 c-1 14 -5 24 -9 22
-3 -2 -9 4 -11 13 -3 13 -5 13 -5 3z"/>
<path d="M9292 10540 c0 -14 2 -19 5 -12 2 6 2 18 0 25 -3 6 -5 1 -5 -13z"/>
<path d="M14580 10550 c0 -5 5 -10 11 -10 6 0 8 -7 4 -17 -4 -13 -3 -15 5 -7
6 6 8 18 4 27 -7 18 -24 23 -24 7z"/>
<path d="M11190 10500 c11 -11 23 -20 27 -20 3 0 -2 9 -12 20 -10 11 -22 20
-27 20 -4 0 1 -9 12 -20z"/>
<path d="M9656 10434 c-8 -22 -4 -25 11 -9 7 8 9 16 4 19 -5 3 -12 -1 -15 -10z"/>
<path d="M12195 10430 c3 -5 8 -10 11 -10 2 0 4 5 4 10 0 6 -5 10 -11 10 -5 0
-7 -4 -4 -10z"/>
<path d="M14082 10364 c10 -10 20 -15 24 -12 3 4 -5 12 -18 18 -22 12 -22 12
-6 -6z"/>
<path d="M9230 10361 c0 -5 5 -13 10 -16 6 -3 10 -2 10 4 0 5 -4 13 -10 16 -5
3 -10 2 -10 -4z"/>
<path d="M10938 10343 c7 -3 16 -2 19 1 4 3 -2 6 -13 5 -11 0 -14 -3 -6 -6z"/>
<path d="M14668 10343 c7 -3 16 -2 19 1 4 3 -2 6 -13 5 -11 0 -14 -3 -6 -6z"/>
<path d="M9393 10333 c9 -2 25 -2 35 0 9 3 1 5 -18 5 -19 0 -27 -2 -17 -5z"/>
<path d="M12378 10333 c7 -3 16 -2 19 1 4 3 -2 6 -13 5 -11 0 -14 -3 -6 -6z"/>
<path d="M13118 10333 c18 -2 45 -2 60 0 15 2 0 4 -33 4 -33 0 -45 -2 -27 -4z"/>
<path d="M8140 8372 c0 -1230 3 -1601 12 -1610 9 -9 93 -12 315 -12 240 0 305
-3 309 -13 2 -7 8 -49 12 -92 l7 -80 63 -3 62 -3 0 166 0 165 -310 0 -310 0
-1 233 c-1 127 -2 780 -3 1449 l-1 1217 -52 65 c-29 36 -60 77 -69 91 -9 14
-20 25 -25 25 -5 0 -9 -678 -9 -1598z"/>
<path d="M12432 6702 c-155 -155 -261 -251 -372 -337 -208 -161 -212 -164
-548 -384 -65 -43 -396 -215 -497 -259 -27 -11 -77 -33 -109 -47 -95 -42 -459
-161 -596 -195 -186 -46 -200 -49 -260 -61 -387 -74 -902 -90 -1295 -39 -218
29 -508 94 -745 167 -258 81 -679 275 -933 431 -232 143 -226 140 -243 117 -8
-10 -14 -24 -14 -31 0 -38 548 -351 785 -448 39 -16 97 -41 130 -56 65 -29
323 -116 445 -149 216 -58 225 -60 545 -111 180 -29 416 -42 630 -37 393 11
628 46 1037 153 156 41 218 61 458 151 578 216 1181 612 1636 1074 162 165
222 243 203 266 -6 7 -18 13 -25 13 -8 0 -112 -98 -232 -218z"/>
<path d="M3273 3663 c-8 -3 -13 -24 -13 -53 l0 -47 -57 -12 c-168 -33 -261
-129 -271 -277 -11 -178 76 -285 258 -316 l70 -12 0 -52 c0 -59 6 -64 80 -64
74 0 80 5 80 64 l0 52 62 13 c135 28 225 97 254 197 22 76 16 193 -14 250 -41
79 -130 133 -249 149 l-53 7 0 48 c0 34 -4 50 -16 54 -18 7 -113 7 -131 -1z
m-13 -409 l0 -186 -32 7 c-86 18 -137 85 -138 177 0 90 43 156 118 178 54 16
52 23 52 -176z m254 158 c48 -28 69 -66 74 -132 8 -111 -41 -185 -135 -205
l-33 -7 0 187 0 187 33 -7 c17 -4 45 -14 61 -23z"/>
<path d="M4383 3622 c-15 -10 -275 -748 -271 -770 2 -13 15 -18 52 -20 87 -6
92 -2 123 93 l27 85 155 -2 154 -3 26 -77 c14 -42 31 -82 37 -88 6 -6 39 -10
80 -8 60 3 69 6 72 23 4 26 -254 757 -271 767 -15 10 -168 10 -184 0z m142
-312 c26 -80 50 -151 53 -157 3 -10 -23 -13 -111 -13 l-115 0 55 166 c30 91
59 162 63 157 4 -4 29 -73 55 -153z"/>
<path d="M5256 3614 c-14 -13 -16 -62 -16 -384 0 -331 2 -370 17 -385 14 -15
38 -16 192 -13 158 3 181 6 228 27 61 27 115 83 133 136 7 20 10 65 8 100 -5
83 -39 135 -111 172 -47 24 -65 27 -179 31 l-128 4 0 99 0 99 179 0 c197 0
191 -2 191 65 0 68 13 65 -255 65 -208 0 -246 -2 -259 -16z m339 -448 c37 -16
65 -59 65 -101 0 -42 -28 -85 -65 -101 -20 -8 -68 -14 -115 -14 l-80 0 0 115
0 115 80 0 c47 0 95 -6 115 -14z"/>
<path d="M6258 3613 c-17 -18 -18 -52 -18 -395 0 -422 -7 -388 80 -388 83 0
80 -5 80 145 l0 132 94 5 c157 8 248 68 283 187 18 63 14 152 -10 197 -23 44
-67 85 -117 107 -38 18 -71 22 -210 25 -153 4 -166 3 -182 -15z m302 -131 c46
-23 62 -55 57 -120 -3 -44 -9 -59 -35 -85 -29 -29 -39 -32 -107 -35 l-75 -4 0
131 0 131 63 0 c39 0 75 -6 97 -18z"/>
<path d="M7223 3623 c-10 -4 -13 -92 -13 -394 l0 -389 23 -5 c13 -4 43 -5 68
-3 l44 3 86 125 c47 69 127 185 177 259 l92 135 0 -250 c0 -181 3 -253 12
-262 12 -12 104 -17 132 -6 14 5 16 50 16 394 0 434 6 400 -76 400 -29 0 -50
-6 -62 -18 -10 -10 -92 -128 -183 -261 l-164 -243 -3 253 c-2 187 -6 255 -15
261 -13 8 -114 10 -134 1z"/>
<path d="M8343 3623 c-10 -4 -13 -92 -13 -393 0 -436 -7 -400 80 -400 84 0 80
-8 80 176 l0 164 40 0 c50 0 92 -21 119 -58 11 -16 39 -80 62 -143 23 -63 49
-120 57 -126 19 -15 116 -17 142 -3 23 12 20 22 -44 178 -55 134 -83 179 -132
208 l-36 22 31 18 c44 26 76 79 127 210 49 127 51 139 28 148 -28 11 -120 6
-136 -6 -9 -7 -28 -51 -43 -98 -52 -160 -84 -200 -165 -208 l-50 -5 0 156 c0
132 -2 156 -16 161 -18 7 -113 7 -131 -1z"/>
<path d="M9543 3622 c-15 -10 -275 -748 -271 -770 2 -13 15 -18 52 -20 87 -6
92 -2 123 93 l27 85 155 -2 154 -3 26 -77 c14 -42 31 -82 37 -88 6 -6 39 -10
80 -8 60 3 69 6 72 23 4 26 -254 757 -271 767 -15 10 -168 10 -184 0z m142
-312 c26 -80 50 -151 53 -157 3 -10 -23 -13 -111 -13 l-115 0 55 166 c30 91
59 162 63 157 4 -4 29 -73 55 -153z"/>
<path d="M10707 3612 c-15 -17 -17 -59 -17 -394 0 -420 -6 -388 75 -388 81 0
75 -26 75 339 0 188 4 320 9 311 5 -8 57 -152 115 -320 59 -169 114 -311 123
-317 17 -13 99 -18 126 -7 9 3 64 139 134 332 l118 327 3 -324 c2 -245 5 -327
15 -333 14 -9 99 -11 121 -2 14 5 16 49 16 384 0 445 11 410 -123 410 -75 0
-89 -3 -112 -22 -19 -17 -51 -90 -121 -273 -52 -137 -99 -254 -103 -258 -4 -4
-45 95 -91 220 -101 279 -114 307 -146 321 -14 7 -65 12 -113 12 -72 0 -91 -3
-104 -18z"/>
<path d="M12102 3618 c-19 -19 -17 -761 2 -777 9 -8 79 -11 232 -9 l219 3 0
60 0 60 -152 3 -153 3 0 109 0 109 127 3 127 3 9 30 c5 18 4 41 -2 58 l-11 27
-125 0 -125 0 0 100 0 100 149 0 c164 0 161 -1 161 65 0 68 10 65 -229 65
-155 0 -220 -3 -229 -12z"/>
<path d="M13016 3614 c-14 -13 -16 -62 -16 -384 0 -331 2 -370 17 -385 14 -15
38 -16 192 -13 158 3 181 6 228 27 61 27 115 83 133 136 7 20 10 65 8 100 -5
83 -39 135 -111 172 -47 24 -65 27 -179 31 l-128 4 0 99 0 99 179 0 c197 0
191 -2 191 65 0 68 13 65 -255 65 -208 0 -246 -2 -259 -16z m339 -448 c37 -16
65 -59 65 -101 0 -42 -28 -85 -65 -101 -20 -8 -68 -14 -115 -14 l-80 0 0 115
0 115 80 0 c47 0 95 -6 115 -14z"/>
<path d="M14012 3618 c-19 -19 -17 -761 2 -777 9 -8 79 -11 232 -9 l219 3 0
60 0 60 -152 3 -153 3 0 109 0 109 127 3 127 3 9 30 c5 18 4 41 -2 58 l-11 27
-125 0 -125 0 0 100 0 100 149 0 c164 0 161 -1 161 65 0 68 10 65 -229 65
-155 0 -220 -3 -229 -12z"/>
<path d="M15061 3617 c-6 -8 -20 -82 -31 -165 -48 -358 -82 -458 -166 -481
-26 -7 -29 -12 -32 -56 -2 -27 0 -60 3 -73 6 -23 9 -24 60 -19 141 14 196 93
250 357 13 63 29 161 36 218 l13 102 88 0 88 0 0 -329 c0 -370 -7 -341 80
-341 87 0 80 -35 80 394 0 284 -3 385 -12 394 -18 18 -441 17 -457 -1z"/>
<path d="M16013 3623 c-10 -4 -13 -92 -13 -394 l0 -389 23 -5 c13 -4 43 -5 68
-3 l44 3 86 125 c47 69 127 185 177 259 l92 135 0 -250 c0 -181 3 -253 12
-262 12 -12 104 -17 132 -6 14 5 16 50 16 394 0 434 6 400 -76 400 -29 0 -50
-6 -62 -18 -10 -10 -92 -128 -183 -261 l-164 -243 -3 253 c-2 187 -6 255 -15
261 -13 8 -114 10 -134 1z"/>
</g>
</svg>
