<svg xmlns="http://www.w3.org/2000/svg" viewBox="0 0 48 48" role="img" aria-hidden="true">
  <defs>
    <linearGradient id="max-icon-grad" x1="0" y1="0" x2="1" y2="1">
      <stop offset="0%" stop-color="#3B82F6"/>
      <stop offset="55%" stop-color="#6366F1"/>
      <stop offset="100%" stop-color="#A855F7"/>
    </linearGradient>
  </defs>
  <rect x="1.5" y="1.5" width="45" height="45" rx="11" fill="#fbf7ef" stroke="#b89d6a" stroke-width="2"/>
  <g transform="translate(24 24) scale(0.0245) translate(-760 -758)">
    <path fill="url(#max-icon-grad)" d="M372.47 0h776.37c204.87 0 372.48 167.61 372.48 372.47v771.64c0 204.86-167.61 372.47-372.48 372.47H372.47c-204.86 0-372.47-167.61-372.47-372.47V372.47C0 167.61 167.61 0 372.47 0z"/>
    <path fill="#fff" d="M772.44 1295.02c-107.13 0-156.91-15.6-243.19-77.99-54.92 70.2-227.77 124.81-235.38 31.2 0-70.14-15.84-129.23-33.31-194.26-21.38-79.69-45.16-168.33-45.16-297.16 0-307.17 253.55-538.24 554.22-538.24 300.58 0 536.3 242.3 536.3 541.23 0 298.89-243.23 535.23-533.49 535.23h.01zm4.34-810.86c-146.28-7.62-260.42 93.24-285.6 251.11-20.87 130.76 16.11 290.06 47.72 298.07 14.92 3.78 53.1-26.92 76.62-50.31 38.73 24.94 83.14 44.28 132.52 46.82 150.2 7.82 283.26-108.97 291.15-258.22 7.88-149.25-112.21-279.65-262.39-287.47h-.02z"/>
  </g>
</svg>
